<svg width="35" height="50" viewBox="0 0 35 50" fill="none" xmlns="http://www.w3.org/2000/svg">
<path d="M17.5 11.25C19.1576 11.25 20.7473 11.9085 21.9194 13.0806C23.0915 14.2527 23.75 15.8424 23.75 17.5C23.75 18.3208 23.5883 19.1335 23.2742 19.8918C22.9602 20.6501 22.4998 21.3391 21.9194 21.9194C21.3391 22.4998 20.6501 22.9602 19.8918 23.2742C19.1335 23.5883 18.3208 23.75 17.5 23.75C15.8424 23.75 14.2527 23.0915 13.0806 21.9194C11.9085 20.7473 11.25 19.1576 11.25 17.5C11.25 15.8424 11.9085 14.2527 13.0806 13.0806C14.2527 11.9085 15.8424 11.25 17.5 11.25ZM17.5 0C22.1413 0 26.5925 1.84374 29.8744 5.12563C33.1563 8.40752 35 12.8587 35 17.5C35 30.625 17.5 50 17.5 50C17.5 50 0 30.625 0 17.5C0 12.8587 1.84374 8.40752 5.12563 5.12563C8.40752 1.84374 12.8587 0 17.5 0ZM17.5 5C14.1848 5 11.0054 6.31696 8.66117 8.66117C6.31696 11.0054 5 14.1848 5 17.5C5 20 5 25 17.5 41.775C30 25 30 20 30 17.5C30 14.1848 28.683 11.0054 26.3388 8.66117C23.9946 6.31696 20.8152 5 17.5 5Z" fill="white"/>
</svg>
