<svg width="53" height="53" viewBox="0 0 53 53" fill="none" xmlns="http://www.w3.org/2000/svg">
<path d="M26.5 51.5C40.3071 51.5 51.5 40.3071 51.5 26.5C51.5 12.6929 40.3071 1.5 26.5 1.5C12.6929 1.5 1.5 12.6929 1.5 26.5C1.5 40.3071 12.6929 51.5 26.5 51.5Z" stroke="white" stroke-width="3" stroke-linecap="round" stroke-linejoin="round"/>
<path d="M16.5 34C17.6643 35.5525 19.1741 36.8125 20.9098 37.6803C22.6455 38.5482 24.5594 39 26.5 39C28.4406 39 30.3545 38.5482 32.0902 37.6803C33.8259 36.8125 35.3357 35.5525 36.5 34M31.5 21.5C33.375 19 37.125 19 39 21.5M21.5 21.5C19.625 19 15.875 19 14 21.5" stroke="white" stroke-width="3" stroke-linecap="round" stroke-linejoin="round"/>
</svg>
