<svg width="61" height="55" viewBox="0 0 61 55" fill="none" xmlns="http://www.w3.org/2000/svg">
<path d="M30.5 11.875C30.5 11.875 30.5 11.875 28.1356 8.75C25.3978 5.125 21.3533 2.5 16.5 2.5C8.75333 2.5 2.5 8.78125 2.5 16.5625C2.5 19.4688 3.37111 22.1562 4.86444 24.375C7.38444 28.1562 30.5 52.5 30.5 52.5M30.5 11.875C30.5 11.875 30.5 11.875 32.8644 8.75C35.6022 5.125 39.6467 2.5 44.5 2.5C52.2467 2.5 58.5 8.78125 58.5 16.5625C58.5 19.4688 57.6289 22.1562 56.1356 24.375C53.6156 28.1562 30.5 52.5 30.5 52.5" stroke="white" stroke-width="5" stroke-linecap="round" stroke-linejoin="round"/>
</svg>
