<svg width="45" height="50" viewBox="0 0 45 50" fill="none" xmlns="http://www.w3.org/2000/svg">
<path fill-rule="evenodd" clip-rule="evenodd" d="M11.5685 4.67442C11.7051 3.39073 12.3079 2.20326 13.2608 1.34037C14.2138 0.477485 15.4496 9.37498e-05 16.7308 0H28.2692C29.5504 9.37498e-05 30.7862 0.477485 31.7392 1.34037C32.6921 2.20326 33.2949 3.39073 33.4315 4.67442C35.1946 4.71163 36.7154 4.80233 38.0169 5.04419C39.7662 5.36977 41.2546 5.98372 42.4662 7.20698C43.8554 8.60465 44.4508 10.3698 44.7323 12.4628C45 14.4767 45 17.0419 45 20.2209V34.4302C45 37.6093 45 40.1744 44.7323 42.1907C44.4508 44.2837 43.8554 46.0465 42.4662 47.4465C41.0769 48.8465 39.3277 49.4465 37.2508 49.7302C35.25 50 32.7046 50 29.55 50H15.45C12.2954 50 9.75 50 7.74923 49.7302C5.67231 49.4465 3.92308 48.8465 2.53385 47.4465C1.14462 46.0465 0.549231 44.2837 0.27 42.1907C2.68221e-07 40.1744 0 37.6093 0 34.4302V20.2209C0 17.0419 2.68221e-07 14.4767 0.27 12.4605C0.546923 10.3674 1.14692 8.60465 2.53385 7.20465C3.74538 5.98372 5.23385 5.36744 6.98308 5.04419C8.28462 4.80233 9.80769 4.71163 11.5685 4.67442ZM11.5731 8.16279C9.91615 8.2 8.63769 8.28372 7.60846 8.47442C6.30231 8.71628 5.54308 9.10698 4.98231 9.67209C4.34308 10.3163 3.92769 11.2186 3.69923 12.9279C3.46615 14.6814 3.46154 17.0116 3.46154 20.3488V34.3023C3.46154 37.6395 3.46615 39.9674 3.69923 41.7256C3.92769 43.4326 4.34538 44.3349 4.98231 44.9791C5.62154 45.6233 6.51692 46.0419 8.21308 46.2721C9.95308 46.507 12.2654 46.5116 15.5769 46.5116H29.4231C32.7346 46.5116 35.0446 46.507 36.7892 46.2721C38.4831 46.0419 39.3785 45.6209 40.0177 44.9791C40.6569 44.3349 41.0723 43.4326 41.3008 41.7233C41.5338 39.9674 41.5385 37.6395 41.5385 34.3023V20.3488C41.5385 17.0116 41.5338 14.6814 41.3008 12.9256C41.0723 11.2186 40.6546 10.3163 40.0177 9.67209C39.4546 9.10698 38.6977 8.7186 37.3915 8.47442C36.3623 8.28372 35.0838 8.2 33.4269 8.16512C33.2793 9.43919 32.6724 10.6142 31.7215 11.467C30.7707 12.3197 29.5421 12.7908 28.2692 12.7907H16.7308C15.4576 12.7907 14.2287 12.3193 13.2778 11.4661C12.3269 10.6129 11.7202 9.43728 11.5731 8.16279ZM16.7308 3.48837C16.2717 3.48837 15.8315 3.67213 15.5069 3.99923C15.1823 4.32633 15 4.76997 15 5.23256V7.55814C15 8.52093 15.7754 9.30233 16.7308 9.30233H28.2692C28.7283 9.30233 29.1685 9.11856 29.4931 8.79146C29.8177 8.46437 30 8.02073 30 7.55814V5.23256C30 4.76997 29.8177 4.32633 29.4931 3.99923C29.1685 3.67213 28.7283 3.48837 28.2692 3.48837H16.7308ZM9.23077 21.5116C9.23077 21.049 9.41312 20.6054 9.7377 20.2783C10.0623 19.9512 10.5025 19.7674 10.9615 19.7674H34.0385C34.4975 19.7674 34.9377 19.9512 35.2623 20.2783C35.5869 20.6054 35.7692 21.049 35.7692 21.5116C35.7692 21.9742 35.5869 22.4179 35.2623 22.745C34.9377 23.072 34.4975 23.2558 34.0385 23.2558H10.9615C10.5025 23.2558 10.0623 23.072 9.7377 22.745C9.41312 22.4179 9.23077 21.9742 9.23077 21.5116ZM11.5385 29.6512C11.5385 29.1886 11.7208 28.7449 12.0454 28.4178C12.37 28.0907 12.8102 27.907 13.2692 27.907H31.7308C32.1898 27.907 32.63 28.0907 32.9546 28.4178C33.2792 28.7449 33.4615 29.1886 33.4615 29.6512C33.4615 30.1137 33.2792 30.5574 32.9546 30.8845C32.63 31.2116 32.1898 31.3953 31.7308 31.3953H13.2692C12.8102 31.3953 12.37 31.2116 12.0454 30.8845C11.7208 30.5574 11.5385 30.1137 11.5385 29.6512ZM13.8462 37.7907C13.8462 37.3281 14.0285 36.8845 14.3531 36.5574C14.6777 36.2303 15.1179 36.0465 15.5769 36.0465H29.4231C29.8821 36.0465 30.3223 36.2303 30.6469 36.5574C30.9715 36.8845 31.1538 37.3281 31.1538 37.7907C31.1538 38.2533 30.9715 38.6969 30.6469 39.024C30.3223 39.3511 29.8821 39.5349 29.4231 39.5349H15.5769C15.1179 39.5349 14.6777 39.3511 14.3531 39.024C14.0285 38.6969 13.8462 38.2533 13.8462 37.7907Z" fill="white"/>
</svg>
