<svg width="54" height="54" viewBox="0 0 54 54" fill="none" xmlns="http://www.w3.org/2000/svg">
<path d="M23.3869 12.6019L14.9295 2.83997C13.9545 1.71503 12.167 1.72003 11.0345 2.85497L4.07953 9.82205C2.00955 11.8944 1.41705 14.9717 2.61454 17.4391C9.76742 32.2514 21.7137 44.2138 36.5169 51.3871C38.9818 52.5845 42.0568 51.992 44.1268 49.9196L51.1468 42.8876C52.2843 41.7501 52.2868 39.9527 51.1518 38.9778L41.3518 30.5658C40.3268 29.6859 38.7343 29.8008 37.7069 30.8308L34.2969 34.2456C34.1228 34.4293 33.8929 34.5504 33.643 34.5902C33.393 34.6299 33.1369 34.5861 32.9144 34.4656C27.3407 31.2557 22.7172 26.6264 19.5145 21.0489C19.3933 20.8261 19.3491 20.5695 19.3889 20.319C19.4287 20.0685 19.5502 19.8382 19.7345 19.664L23.1344 16.2617C24.1644 15.2267 24.2769 13.6293 23.3869 12.6019Z" stroke="white" stroke-width="4" stroke-linecap="round" stroke-linejoin="round"/>
</svg>
