<svg width="45" height="50" viewBox="0 0 45 50" fill="none" xmlns="http://www.w3.org/2000/svg">
<path d="M43.5885 10.2651L23.6466 0.262567C22.946 -0.0875224 22.0953 -0.0875224 21.3947 0.262567L1.45271 10.2651C0.67705 10.6402 0.176625 11.3904 0.0765395 12.2406C0.0515183 12.5157 -2.3255 39.1725 21.4697 49.7752C21.7914 49.9233 22.1414 50 22.4956 50C22.8498 50 23.1998 49.9233 23.5215 49.7752C47.3167 39.1475 44.9647 12.5157 44.9146 12.2406C44.8747 11.8208 44.727 11.4184 44.486 11.0724C44.2449 10.7263 43.9185 10.4483 43.5385 10.2651H43.5885ZM22.5206 44.7489C5.65628 36.5718 4.8556 19.0924 5.00573 14.0911L22.5206 5.31386L40.0355 14.0911C40.1356 19.0674 39.2098 36.6469 22.5206 44.7739V44.7489Z" fill="white"/>
</svg>
