<svg width="50" height="50" viewBox="0 0 50 50" fill="none" xmlns="http://www.w3.org/2000/svg">
<path d="M1.58187 19.5123L21.6855 28.3058L30.4743 48.4203C30.8953 49.3945 31.8426 50 32.8951 50H33.0267C33.5588 49.9727 34.0702 49.7844 34.4931 49.4601C34.9159 49.1357 35.2304 48.6905 35.3949 48.1834L49.8674 3.42597C50.1832 2.47816 49.9201 1.45138 49.2359 0.766852C48.8965 0.423095 48.4674 0.181609 47.9976 0.0698975C47.5277 -0.0418146 47.0359 -0.0192634 46.5782 0.134983L1.8187 14.589C0.76615 14.9313 0.0556817 15.8791 0.0030544 16.9585C-0.0495729 18.0643 0.581954 19.0647 1.58187 19.5123ZM43.289 6.71695L32.5267 39.9691L26.1062 25.2518C25.8431 24.6462 25.3694 24.1723 24.7379 23.8827L10.0286 17.4587L43.2627 6.69063L43.289 6.71695Z" fill="white"/>
</svg>
