<svg width="44" height="50" viewBox="0 0 44 50" fill="none" xmlns="http://www.w3.org/2000/svg">
<path d="M34.9082 7.83333C32.9904 5.66535 31.9334 2.88166 31.9337 0H23.2628V34.4444C23.1973 36.3089 22.4027 38.0752 21.0468 39.3708C19.6908 40.6664 17.8795 41.39 15.9949 41.3889C12.0102 41.3889 8.69898 38.1667 8.69898 34.1667C8.69898 29.3889 13.3571 25.8056 18.1556 27.2778V18.5C8.47449 17.2222 0 24.6667 0 34.1667C0 43.4167 7.7449 50 15.9668 50C24.7781 50 31.9337 42.9167 31.9337 34.1667V16.6944C35.4497 19.194 39.6712 20.5351 44 20.5278V11.9444C44 11.9444 38.7245 12.1944 34.9082 7.83333Z" fill="white"/>
</svg>
