<svg width="87" height="50" viewBox="0 0 87 50" fill="none" xmlns="http://www.w3.org/2000/svg">
<path d="M43.5 1.5C47.8352 1.5 52.6474 2.96454 57.499 5.26172C62.3343 7.55122 67.1071 10.6185 71.3369 13.71C75.5626 16.7984 79.2181 19.891 81.8184 22.2119C83.1098 23.3646 84.139 24.3249 84.8457 24.998C84.139 25.6713 83.1101 26.633 81.8184 27.7861C79.2181 30.1073 75.5624 33.1994 71.3369 36.2881C67.1069 39.38 62.3335 42.4484 57.498 44.7383C52.6466 47.0356 47.835 48.5 43.5 48.5C31.8413 48.5 21.2961 42.4913 13.5674 36.3262C9.72119 33.2581 6.61756 30.1873 4.47656 27.8838C3.40705 26.7331 2.57969 25.7762 2.02246 25.1104C1.99069 25.0724 1.96067 25.0341 1.93066 24.998C1.96053 24.9622 1.99085 24.9245 2.02246 24.8867C2.57969 24.2209 3.40704 23.2638 4.47656 22.1133C6.61758 19.8101 9.72122 16.7395 13.5674 13.6719C21.2961 7.50758 31.8413 1.5 43.5 1.5ZM43.5 7.9209C34.1247 7.9209 26.5109 15.5901 26.5107 24.998C26.5107 34.4065 34.125 42.0732 43.5 42.0732C52.875 42.0732 60.4893 34.4065 60.4893 24.998C60.4891 15.5901 52.8753 7.9209 43.5 7.9209ZM43.4717 17.4053C45.444 17.4428 47.3247 18.257 48.709 19.6758C50.0935 21.0948 50.8711 23.0054 50.8711 24.9971C50.871 26.9887 50.0935 28.8994 48.709 30.3184C47.3247 31.737 45.444 32.5514 43.4717 32.5889C42.4707 32.6079 41.4756 32.426 40.5449 32.0537C39.6142 31.6814 38.7656 31.1264 38.0498 30.4199C37.334 29.7135 36.7656 28.8696 36.377 27.9385C35.9883 27.0074 35.7881 26.0074 35.7881 24.9971C35.7881 23.9866 35.9883 22.9859 36.377 22.0547C36.7655 21.1238 37.3342 20.2805 38.0498 19.5742C38.7656 18.8678 39.6143 18.3127 40.5449 17.9404C41.4756 17.5681 42.4707 17.3863 43.4717 17.4053Z" stroke="white" stroke-width="3"/>
</svg>
